HIERARCHY
ROOT Hips
{
	OFFSET 0.00 0.00 0.00
	CHANNELS 6 Xposition Yposition Zposition Xrotation Yrotation Zrotation
	JOINT Spine
	{
		OFFSET 0.00000 1.72418 2.58627
		CHANNELS 3 Xrotation Yrotation Zrotation
		JOINT Spine1
		{
			OFFSET 0.00000 0.59880 3.39597
			CHANNELS 3 Xrotation Yrotation Zrotation
			JOINT Spine2
			{
				OFFSET 0.00000 0.30055 3.43524
				CHANNELS 3 Xrotation Yrotation Zrotation
				JOINT Spine3
				{
					OFFSET 0.00000 0.00000 3.44836
					CHANNELS 3 Xrotation Yrotation Zrotation
					JOINT Neck
					{
						OFFSET 0.00000 -1.29313 9.05195
						CHANNELS 3 Xrotation Yrotation Zrotation
						JOINT Head
						{
							OFFSET 0.00000 -0.82335 4.66946
							CHANNELS 3 Xrotation Yrotation Zrotation
							End Site
							{
								OFFSET 0.00000 0.00001 5.58203
							}
						}
					}
					JOINT RightShoulder
					{
						OFFSET -1.18828 -1.98046 6.41673
						CHANNELS 3 Xrotation Yrotation Zrotation
						JOINT RightArm
						{
							OFFSET -5.90180 0.00000 0.00000
							CHANNELS 3 Xrotation Yrotation Zrotation
							JOINT RightForeArm
							{
								OFFSET -11.45951 0.00000 0.00000
								CHANNELS 3 Xrotation Yrotation Zrotation
								JOINT RightHand
								{
									OFFSET -10.63451 0.00000 0.00000
									CHANNELS 3 Xrotation Yrotation Zrotation
									JOINT RightHandEnd
									{
										OFFSET -2.86944 0.00000 0.00000
										CHANNELS 3 Xrotation Yrotation Zrotation
										End Site
										{
											OFFSET -2.86944 0.00000 0.00000
										}
									}
									JOINT RightHandThumb1
									{
										OFFSET -1.14778 -1.91296 -0.76518
										CHANNELS 3 Yrotation Xrotation Zrotation
										End Site
										{
											OFFSET -2.77167 -0.74267 0.00000
										}
									}
								}
							}
						}
					}
					JOINT LeftShoulder
					{
						OFFSET 1.18828 -1.98046 6.41673
						CHANNELS 3 Xrotation Yrotation Zrotation
						JOINT LeftArm
						{
							OFFSET 5.90180 0.00000 0.00000
							CHANNELS 3 Xrotation Yrotation Zrotation
							JOINT LeftForeArm
							{
								OFFSET 11.45951 0.00000 0.00000
								CHANNELS 3 Xrotation Yrotation Zrotation
								JOINT LeftHand
								{
									OFFSET 10.63451 0.00000 0.00000
									CHANNELS 3 Xrotation Yrotation Zrotation
									JOINT LeftHandEnd
									{
										OFFSET 2.86944 0.00000 0.00000
										CHANNELS 3 Xrotation Yrotation Zrotation
										End Site
										{
											OFFSET 2.86944 0.00000 0.00000
										}
									}
									JOINT LeftHandThumb1
									{
										OFFSET 1.14778 -1.91296 -0.76518
										CHANNELS 3 Yrotation Xrotation Zrotation
										End Site
										{
											OFFSET 2.77167 -0.74267 0.00000
										}
									}
								}
							}
						}
					}
				}
			}
		}
	}
	JOINT RightUpLeg
	{
		OFFSET -3.52524 0.00000 -1.02984
		CHANNELS 3 Xrotation Yrotation Zrotation
		JOINT RightLeg
		{
			OFFSET 0.00001 0.00000 -17.80965
			CHANNELS 3 Xrotation Yrotation Zrotation
			JOINT RightFoot
			{
				OFFSET 0.00001 0.00000 -17.00908
				CHANNELS 3 Xrotation Yrotation Zrotation
				JOINT RightToeBase
				{
					OFFSET 0.00000 -5.55853 -2.02314
					CHANNELS 3 Xrotation Yrotation Zrotation
					End Site
					{
						OFFSET 0.00000 -2.85188 -0.00000
					}
				}
			}
		}
	}
	JOINT LeftUpLeg
	{
		OFFSET 3.52524 0.00000 -1.02984
		CHANNELS 3 Xrotation Yrotation Zrotation
		JOINT LeftLeg
		{
			OFFSET 0.00001 0.00000 -17.80965
			CHANNELS 3 Xrotation Yrotation Zrotation
			JOINT LeftFoot
			{
				OFFSET 0.00001 0.00000 -17.00908
				CHANNELS 3 Xrotation Yrotation Zrotation
				JOINT LeftToeBase
				{
					OFFSET 0.00000 -5.55853 -2.02314
					CHANNELS 3 Xrotation Yrotation Zrotation
					End Site
					{
						OFFSET 0.00000 -2.85188 -0.00000
					}
				}
			}
		}
	}
}
MOTION
Frames: 9
Frame Time: 0.008342
 6.6728 -22.6931 35.9549 1.0191 1.3676 -170.6768 4.0498 2.0983 -1.9452 1.5570 -0.3756 -0.0673 4.3661 -0.6005 -0.7173 1.0556 -0.5987 0.4144 -1.5082 -4.6396 -7.4092 -4.3988 -2.3394 -11.6820 12.9651 -9.8427 1.7141 -61.7470 -24.0722 -31.8745 0.0000 0.0000 35.5951 -46.4136 24.9626 -5.2325 -0.0000 0.0000 0.0000 -0.0000 -0.0000 0.0000 17.5101 5.7867 -3.7270 -46.5836 37.1240 28.8822 -0.0000 -0.0000 -32.3313 -30.5202 -21.6117 7.7749 0.0000 -0.0000 -0.0000 -0.0000 0.0000 0.0000 -32.9544 7.6814 -24.1516 32.9250 0.0000 0.0000 -3.9793 -19.0815 1.8102 -10.9276 0.0000 -0.0000 -2.6045 6.5277 -6.2769 30.1007 0.0000 0.0000 -24.6283 -3.3686 3.4478 -0.4016 0.0000 -0.0000
 6.6348 -22.3704 35.7741 1.3693 1.7895 -171.1556 4.2798 2.3362 -2.0214 1.6281 -0.3851 -0.0558 4.6189 -0.5103 -0.4893 1.1411 -0.6011 0.4551 -1.4205 -4.6226 -7.3562 -4.3770 -2.3974 -11.5985 13.3617 -10.1026 2.1273 -61.4061 -25.9350 -32.5392 0.0000 0.0000 35.0134 -46.8500 24.9544 -5.4948 0.0000 0.0000 -0.0000 0.0000 0.0000 -0.0000 18.0068 5.9798 -4.1152 -46.4087 39.2957 29.1929 -0.0000 -0.0000 -32.4859 -30.6853 -21.6848 8.1677 -0.0000 -0.0000 -0.0000 -0.0000 0.0000 -0.0000 -33.0925 7.4929 -24.4395 31.7178 0.0000 0.0000 -2.9884 -19.7443 1.8176 -11.3851 0.0000 -0.0000 -2.2102 7.1075 -6.3948 31.4085 0.0000 0.0000 -25.6921 -3.6545 3.9166 -0.5502 0.0000 -0.0000
 6.5971 -22.0460 35.5835 1.7244 2.2180 -171.6421 4.5101 2.5665 -2.0860 1.6869 -0.3769 -0.0427 4.8818 -0.4173 -0.2859 1.2304 -0.6020 0.4947 -1.3510 -4.6092 -7.3087 -4.3689 -2.4309 -11.4801 13.6852 -10.3179 2.5157 -60.9571 -27.9107 -33.1070 0.0000 0.0000 34.4277 -47.2139 24.8905 -5.8651 -0.0000 0.0000 -0.0000 0.0000 0.0000 0.0000 18.4795 6.0876 -4.4966 -46.1295 41.5427 29.3634 -0.0000 -0.0000 -32.6108 -30.6840 -21.6183 8.6194 0.0000 -0.0000 -0.0000 0.0000 -0.0000 -0.0000 -33.2946 7.3152 -24.5614 30.9388 0.0000 0.0000 -2.1531 -20.0972 1.6711 -11.6586 0.0000 -0.0000 -1.8258 7.6909 -6.4197 32.7480 0.0000 0.0000 -26.7752 -3.9096 4.3208 -0.6854 0.0000 -0.0000
 6.5599 -21.7209 35.3838 2.0685 2.6406 -172.1346 4.7265 2.7757 -2.1345 1.7316 -0.3471 -0.0234 5.1575 -0.3268 -0.1150 1.3213 -0.5964 0.5232 -1.3049 -4.6014 -7.2602 -4.3756 -2.4391 -11.3240 13.9479 -10.5048 2.8877 -60.3850 -29.9904 -33.5373 0.0000 0.0000 33.8322 -47.4909 24.7562 -6.3519 0.0000 -0.0000 0.0000 0.0000 0.0000 0.0000 18.9183 6.1374 -4.8560 -45.7103 43.8348 29.3390 -0.0000 -0.0000 -32.7005 -30.5416 -21.4003 9.0965 0.0000 0.0000 0.0000 0.0000 -0.0000 -0.0000 -33.5910 7.1452 -24.4797 30.6256 0.0000 0.0000 -1.5337 -20.0804 1.3814 -11.6959 0.0000 -0.0000 -1.4712 8.2653 -6.3477 34.1173 0.0000 0.0000 -27.8687 -4.1452 4.6712 -0.8346 0.0000 -0.0000
 6.5240 -21.3959 35.1754 2.3818 3.0332 -172.6251 4.9052 2.9521 -2.1614 1.7654 -0.3206 -0.0121 5.4444 -0.2218 0.0204 1.4150 -0.5907 0.5481 -1.2862 -4.5930 -7.2078 -4.3967 -2.4222 -11.1336 14.1684 -10.6667 3.2487 -59.6867 -32.1622 -33.8040 0.0000 0.0000 33.2233 -47.6688 24.5334 -6.9504 -0.0000 -0.0000 -0.0000 -0.0000 -0.0000 0.0000 19.3292 6.1504 -5.1980 -45.1153 46.1426 29.0659 -0.0000 -0.0000 -32.7511 -30.3039 -21.0400 9.5503 0.0000 -0.0000 0.0000 -0.0000 -0.0000 0.0000 -34.0071 6.9671 -24.1790 30.7909 0.0000 0.0000 -1.1712 -19.6476 0.9615 -11.4504 0.0000 -0.0000 -1.1732 8.8055 -6.1791 35.5227 0.0000 0.0000 -28.9679 -4.3714 4.9730 -1.0260 0.0000 -0.0000
 6.4893 -21.0693 34.9597 2.6950 3.3923 -173.1110 5.0837 3.0812 -2.1696 1.7792 -0.2807 -0.0008 5.7441 -0.1208 0.1170 1.5107 -0.5791 0.5585 -1.2981 -4.5843 -7.1438 -4.4246 -2.3780 -10.9091 14.3602 -10.8075 3.6089 -58.8537 -34.4105 -33.8828 0.0000 0.0000 32.6058 -47.7329 24.2159 -7.6682 0.0000 -0.0000 0.0000 -0.0000 -0.0000 -0.0000 19.7056 6.1391 -5.5076 -44.3056 48.4451 28.5027 -0.0000 -0.0000 -32.7697 -29.9995 -20.5566 9.9494 -0.0000 0.0000 -0.0000 0.0000 -0.0000 0.0000 -34.5063 6.7773 -23.6664 31.4298 0.0000 0.0000 -1.0862 -18.7668 0.4476 -10.8852 0.0000 -0.0000 -0.8869 9.3004 -5.9206 36.9446 0.0000 0.0000 -30.0577 -4.5975 5.2336 -1.2873 0.0000 -0.0000
 6.4553 -20.7422 34.7364 2.9702 3.7258 -173.5802 5.2232 3.1980 -2.1648 1.7812 -0.2561 0.0053 6.0488 -0.0235 0.1779 1.6074 -0.5638 0.5528 -1.3392 -4.5638 -7.0633 -4.4535 -2.3096 -10.6555 14.5417 -10.9216 3.9728 -57.8849 -36.7180 -33.7555 0.0000 0.0000 31.9827 -47.6853 23.8035 -8.4890 -0.0000 -0.0000 0.0000 -0.0000 -0.0000 0.0000 20.0621 6.1199 -5.7887 -43.2318 50.7166 27.5905 -0.0000 -0.0000 -32.7658 -29.6793 -19.9937 10.2593 -0.0000 0.0000 -0.0000 0.0000 -0.0000 -0.0000 -35.1284 6.5913 -22.9513 32.5289 0.0000 0.0000 -1.2778 -17.4252 -0.1292 -9.9795 0.0000 -0.0000 -0.6477 9.7638 -5.5898 38.3796 0.0000 0.0000 -31.1248 -4.8291 5.4607 -1.6384 0.0000 -0.0000
 6.4223 -20.4121 34.5067 3.2277 4.0205 -174.0226 5.3404 3.2764 -2.1491 1.7719 -0.2254 0.0096 6.3568 0.0562 0.1873 1.7034 -0.5466 0.5406 -1.4063 -4.5298 -6.9651 -4.4767 -2.2173 -10.3752 14.7361 -11.0140 4.3417 -56.7823 -39.0619 -33.4003 0.0000 0.0000 31.3659 -47.5218 23.3173 -9.4140 -0.0000 0.0000 0.0000 -0.0000 -0.0000 -0.0000 20.4005 6.0960 -6.0437 -41.8456 52.9305 26.2914 -0.0000 -0.0000 -32.7576 -29.3710 -19.3869 10.4701 -0.0000 -0.0000 0.0000 0.0000 -0.0000 -0.0000 -35.8293 6.3954 -22.0906 34.0310 0.0000 0.0000 -1.7197 -15.6292 -0.7255 -8.7377 0.0000 -0.0000 -0.4231 10.1747 -5.2020 39.8155 0.0000 0.0000 -32.1645 -5.0646 5.6495 -2.0850 0.0000 -0.0000
 6.3901 -20.0775 34.2712 3.4683 4.2772 -174.4252 5.4345 3.3152 -2.1305 1.7515 -0.1748 0.0131 6.6653 0.1004 0.1435 1.7981 -0.5281 0.5248 -1.4958 -4.4758 -6.8495 -4.4875 -2.1032 -10.0708 14.9525 -11.0789 4.7124 -55.5448 -41.4205 -32.8079 0.0000 0.0000 30.7594 -47.2697 22.7753 -10.4113 -0.0000 0.0000 -0.0000 0.0000 -0.0000 -0.0000 20.7182 6.0691 -6.2843 -40.1023 55.0553 24.5828 -0.0000 -0.0000 -32.7687 -29.0899 -18.7645 10.5876 0.0000 -0.0000 0.0000 0.0000 0.0000 0.0000 -36.5872 6.1939 -21.1370 35.8747 0.0000 0.0000 -2.3782 -13.4176 -1.3095 -7.2021 0.0000 -0.0000 -0.1982 10.5335 -4.7831 41.2373 0.0000 0.0000 -33.1714 -5.2997 5.7989 -2.6194 0.0000 -0.0000
